# xmcd CD database file
#
# Track frame offsets:
#	150
#	13202
#	27435
#	41115
#	56462
#	70012
#	84545
#	99042
#	111015
#	124485
#	138612
#	152225
#	164547
#	178302
#	191765
#	205840
#	218830
#	229517
#	244407
#	258497
#
# Disc length: 3615 seconds
#
# Revision: 0
# Processed by: cddbd v1.5PL3 Copyright (c) Steve Scherf et al.
# Submitted via: Feurio! 1.65 - http://www.feurio.com
#
DISCID=260e1d14
DTITLE=Duke Ellington - A Generosity of Mood
DYEAR=1994
DGENRE=blues
TTITLE0=Mood Indigo
TTITLE1=It don't Mean a thing
TTITLE2=East St.Louis Toodle-o
TTITLE3=Black and tan Fantasy
TTITLE4=Rockin' in Rhythm
TTITLE5=The Mooche
TTITLE6=Solitude
TTITLE7=Caravan
TTITLE8=Wall Street Wail
TTITLE9=When your Smiling
TTITLE10=Cotton Club Stomp
TTITLE11=Runnin' Wild
TTITLE12=Wang Wang Blues
TTITLE13=Twelfth Street Rag
TTITLE14=Creole Rhapsody 1
TTITLE15=Creole Rhapsody 2
TTITLE16=Is that Religion?
TTITLE17=Hot and Bothered
TTITLE18=Old Man Blues
TTITLE19=Ring Dem Bells
EXTD=
EXTT0=
EXTT1=
EXTT2=
EXTT3=
EXTT4=
EXTT5=
EXTT6=
EXTT7=
EXTT8=
EXTT9=
EXTT10=
EXTT11=
EXTT12=
EXTT13=
EXTT14=
EXTT15=
EXTT16=
EXTT17=
EXTT18=
EXTT19=
PLAYORDER=
